# xmcd
#
# Track frame offsets:
#	150
#	12212
#	25015
#	32279
#	45182
#	56259
#	67589
#	78605
#	88130
#	101996
#	110503
#	120542
#	130004
#	139430
#	151995
#	160853
#	169581
#	181133
#	191527
#	201063
#	212378
#	225293
#	237320
#	250846
#
# Disc length: 3727 seconds
#
# Revision: 2
# Processed by: cddbd v1.5.2PL0 Copyright (c) Steve Scherf et al.
# Submitted via: EasyCDDAExtractor 16.0.6.1
#
DISCID=240e8d18
DTITLE=Varios - C-074 Transit Music Country Nº 1
DYEAR=1994
DGENRE=Country
TTITLE0=Kenny Rogers - Reuben James
TTITLE1=Donna Fargo - Daddy
TTITLE2=George Jones - I'm Ragged But Right
TTITLE3=Kenny Rogers - Ruby Don't Take Your Love To Town
TTITLE4=Donna Fargo - Whisful Thinking
TTITLE5=Frakie Laine - Mule Train
TTITLE6=Waylon Jennings - Sally Was A Good Old Girl
TTITLE7=Stonewall Jackson - Shake 'Em Up Roll
TTITLE8=Stonewall Jackson - Keep Of The Grass
TTITLE9=Waylon Jennings - Love's Gonna Live Here
TTITLE10=Patsy Cline - Turn The Cards Slowly
TTITLE11=Dave Dudley - Six Days On The Road
TTITLE12=Dave Dudley - Last Days In The Mines
TTITLE13=Lynn Anderson - Rose Garden
TTITLE14=Frakie Laine - Rawhide
TTITLE15=Kitty Wells - I'll Reposes My Heart
TTITLE16=Johnny Lee - Ramblin' Roses
TTITLE17=Stonewall Jackson - Waterloo
TTITLE18=Carl Perkins - This Old House
TTITLE19=Carl Perkins - Candy Store
TTITLE20=Merle Haggard and Friends - Working Men Blues
TTITLE21=Varios - Some Broken Hearts Never Mend
TTITLE22=Tammy Wynette - Stand By Your Man
TTITLE23=Bellamy Brothers - Sugar Daddy+ I'f Said Yoy Had A Beautiful Body
EXTD=
EXTT0=
EXTT1=
EXTT2=
EXTT3=
EXTT4=
EXTT5=
EXTT6=
EXTT7=
EXTT8=
EXTT9=
EXTT10=
EXTT11=
EXTT12=
EXTT13=
EXTT14=
EXTT15=
EXTT16=
EXTT17=
EXTT18=
EXTT19=
EXTT20=
EXTT21=
EXTT22=
EXTT23=
PLAYORDER=
